<svg xmlns="http://www.w3.org/2000/svg" xmlns:xlink="http://www.w3.org/1999/xlink" id="Layer_1" x="0" y="0" version="1.1" viewBox="0 0 390.8 55.4" xml:space="preserve" style="enable-background:new 0 0 390.8 55.4"><style type="text/css">.st0{enable-background:new}.st1{fill:#0a4678}.st2{fill:#171717}.st3{fill:none;stroke:#aeaeae}.st3,.st4{stroke-linecap:square}.st4,.st5,.st6{fill:none;stroke:#9b9b9b}.st6{fill-rule:evenodd;clip-rule:evenodd;fill:#f0f0f0}</style><desc>Created with Sketch.</desc><g id="LOGO"><g class="st0"><path d="M85.8,8.6h4.5v3.9c0.8-2.3,2.6-4.2,5.6-4.2c0.2,0,0.3,0,0.3,0v4.5c-0.1,0-0.1,0-0.3-0.1 c-4.1-0.3-5.4,1.3-5.4,3.4v9.1h-4.7V8.6z" class="st1"/><path d="M106,22.1c1.6,0,2.8-0.6,3.3-2.2h4.2c-0.7,3.6-4,5.6-7.4,5.6c-4.9,0-8.2-3.2-8.2-8.4c0-5,3-8.8,8-8.8 s7.7,3.4,7.7,8.4V18h-11.1C102.5,20.4,103.8,22.1,106,22.1z M109.2,15.1c0-2-1.1-3.6-3.3-3.6c-2.1,0-3.4,1.8-3.4,3.6H109.2z" class="st1"/><path d="M115.9,19.9h4c0.4,1.8,2.2,2.3,3.4,2.3c1.8,0,3-0.6,3-1.7c0-0.9-0.6-1.4-2.1-1.7l-2.9-0.6 c-2.9-0.6-4.8-2-4.9-4.7c0-3,2.5-5.2,6.9-5.2c4.1,0,6.7,2,6.8,5.1h-3.9c-0.3-1.4-1.4-2-2.9-2c-1.8,0-2.8,0.7-2.8,1.8 c0,0.9,0.8,1.3,2.6,1.7l2.7,0.6c3.7,0.9,4.5,3.3,4.5,4.8c0,3.4-3.1,5.2-7,5.2C119.9,25.4,116.5,23.7,115.9,19.9z" class="st1"/><path d="M132.7,16.9c0-5.2,3.2-8.7,8-8.7c5,0,8,3.6,8,8.7c0,5-3,8.5-8,8.5S132.7,21.9,132.7,16.9z M144.1,16.8 c0-2.6-0.9-5.1-3.4-5.1c-2.6,0-3.5,2.5-3.5,5.1s0.9,5.2,3.5,5.2C143.3,22,144.1,19.4,144.1,16.8z" class="st1"/><path d="M151.4,20V8.5h4.7v10.9c0,1.8,1.5,2.6,3,2.6c1.7,0,3-1,3-2.7V8.5h4.7L166.7,25h-3.5l-0.5-3.3 c-0.6,2.9-3,3.6-4.9,3.6C155,25.4,151.4,23.7,151.4,20z" class="st1"/><path d="M170.6,8.6h4.5v3.9c0.8-2.3,2.6-4.2,5.6-4.2c0.2,0,0.3,0,0.3,0v4.5c-0.1,0-0.1,0-0.3-0.1 c-4.1-0.3-5.4,1.3-5.4,3.4v9.1h-4.7L170.6,8.6L170.6,8.6z" class="st1"/><path d="M197.5,14.6h-3.9c-0.3-1.5-1.2-2.8-3-2.8c-2.3,0-3.7,1.9-3.7,5.1s1.5,5.2,3.8,5.2c1.8,0,2.7-1.5,2.9-2.8h3.8 c-0.2,3.5-2.9,6.1-6.9,6.1c-4.7,0-8-3.5-8-8.5c0-5.1,3.3-8.7,8-8.7C194.7,8.2,197.3,11,197.5,14.6z" class="st1"/><path d="M208.2,22.1c1.6,0,2.8-0.6,3.3-2.2h4.2c-0.7,3.6-4,5.6-7.4,5.6c-4.9,0-8.2-3.2-8.2-8.4c0-5,3-8.8,8-8.8 s7.7,3.4,7.7,8.4V18h-11.1C204.6,20.4,205.9,22.1,208.2,22.1z M211.4,15.1c0-2-1.1-3.6-3.3-3.6c-2.1,0-3.4,1.8-3.4,3.6H211.4z" class="st1"/><path d="M218.1,19.9h4c0.4,1.8,2.2,2.3,3.4,2.3c1.8,0,3-0.6,3-1.7c0-0.9-0.6-1.4-2.1-1.7l-2.9-0.6 c-2.9-0.6-4.8-2-4.9-4.7c0-3,2.5-5.2,6.9-5.2c4.1,0,6.7,2,6.8,5.1h-3.9c-0.3-1.4-1.4-2-2.9-2c-1.8,0-2.8,0.7-2.8,1.8 c0,0.9,0.8,1.3,2.6,1.7l2.7,0.6c3.7,0.9,4.5,3.3,4.5,4.8c0,3.4-3.1,5.2-7,5.2C222,25.4,218.7,23.7,218.1,19.9z" class="st1"/><path d="M235.3,20h5.1v5.1h-5.1V20z" class="st1"/><path d="M243.5,16.7c0-5,2.3-8.5,6.5-8.5c2.3,0,4.1,1.1,5,2.5V1.3h4.7v23.8h-3.4l-0.5-3.4c-0.6,1.8-2,3.7-5.2,3.7 C245.9,25.4,243.5,22,243.5,16.7z M255,18.1v-2.6c0-2-1.1-3.8-3.5-3.8c-2,0-3.5,1.4-3.5,5.1c0,3.9,1.5,5.4,3.5,5.4 S255,20.5,255,18.1z" class="st1"/><path d="M262.9,20.4c0-3.6,2.6-5.6,8.5-5.6h2.1v-1c0-1.6-1-2.4-2.7-2.3c-1.3,0-2.7,0.6-3.2,2.1h-3.9 c0.2-3.4,3.2-5.2,7.3-5.2c5.1,0,7,2.1,7,5.2v11.6h-4l-0.4-2.9c-1.1,2.4-2.8,3.2-5.1,3.2C265.3,25.4,262.9,23.6,262.9,20.4z M273.4,19.6v-2.5h-1.7c-2.3,0-4.4,0.7-4.4,2.8c0,1.5,1.2,2.4,2.7,2.4C271.7,22.4,273.4,21,273.4,19.6z" class="st1"/><path d="M287.7,11.8v8.8c0,1.2,0.5,1.4,1.5,1.4h2.2v2.9c-0.4,0.2-1.3,0.4-2.9,0.4c-4.4,0-5.5-1.8-5.5-4.5v-9h-2.7V8.6 h2.8l1.2-5h3.3v5h3.7v3.3h-3.6V11.8z" class="st1"/><path d="M294,20.4c0-3.6,2.6-5.6,8.5-5.6h2.1v-1c0-1.6-1-2.4-2.7-2.3c-1.3,0-2.7,0.6-3.2,2.1h-3.9 c0.2-3.4,3.2-5.2,7.3-5.2c5.1,0,7,2.1,7,5.2v11.6h-3.9l-0.4-2.9c-1.1,2.4-2.8,3.2-5.1,3.2C296.5,25.4,294,23.6,294,20.4z M304.6,19.6v-2.5h-1.7c-2.3,0-4.4,0.7-4.4,2.8c0,1.5,1.2,2.4,2.7,2.4C302.9,22.4,304.5,21,304.6,19.6z" class="st1"/><path d="M312.8,20h5.1v5.1h-5.1V20z" class="st1"/><path d="M321.1,26.5c0-2.2,2.9-2.9,3.2-3.1c-0.5-0.3-2-0.9-2-2.5c0-1.2,1.1-2.3,3.4-2.7c-2.3-1.1-3.3-2.9-3.3-4.8 c0-3.3,3.4-5.2,7.8-5.2c2.2,0,3.6,0.5,4.8,1.3c1-0.4,3.5-1.4,4.9-2v3.6l-2.9,0.5c0.2,0.5,0.4,1.3,0.4,1.7c0,2.8-2.5,5.5-7.5,5.5 c-0.4,0-1.2,0-1.6-0.1c-1.2,0.1-1.7,0.3-1.7,0.7c0,0.5,1,0.6,2.9,0.7c0.7,0,2,0.1,3.4,0.2c4.2,0.3,6,2.2,6,4.7 c0,3.2-3,5.3-8.8,5.3C324.1,30.6,321.1,28.9,321.1,26.5z M334.4,26.1c0-1-0.8-1.7-2.5-1.8l-3.8-0.2c-1.5-0.1-2.5,0.9-2.5,1.9 c0,1.5,1.7,2,5.2,2C333.3,28,334.4,27.3,334.4,26.1z M332.9,13.6c0-1.7-1.2-2.9-2.9-2.9c-1.8,0-3,1.2-3,2.9c0,1.6,1.1,2.7,3,2.7 C331.8,16.3,332.9,15.3,332.9,13.6z" class="st1"/><path d="M341,16.9c0-5.2,3.2-8.7,8-8.7c5,0,8,3.6,8,8.7c0,5-3,8.5-8,8.5C344.1,25.4,341,21.9,341,16.9z M352.5,16.8 c0-2.6-0.9-5.1-3.4-5.1c-2.6,0-3.5,2.5-3.5,5.1s0.9,5.2,3.5,5.2C351.6,22,352.5,19.4,352.5,16.8z" class="st1"/><path d="M367.4,25.1H364l-6.2-16.5h4.2l3.6,10.5h0.1l3.6-10.5h4.3L367.4,25.1z" class="st1"/></g><g class="st0"><path d="M87.7,42.7h1.4l3.4,9.4h-1.2l-0.9-2.6h-3.8l-0.9,2.6h-1.2L87.7,42.7z M90,48.4l-1.6-4.5l-1.6,4.5H90z" class="st2"/><path d="M97.1,45.4h1.1v1.3c0.3-0.8,1.1-1.4,2.3-1.4c0.1,0,0.1,0,0.2,0v1.2c-0.1,0-0.1,0-0.2,0 c-1.4-0.1-2.2,0.5-2.2,1.5v4.2h-1.2C97.1,52.2,97.1,45.4,97.1,45.4z" class="st2"/><path d="M104.7,51.3c0.9,0,1.4-0.4,1.7-1.2h1.1c-0.3,1.4-1.5,2.1-2.8,2.1c-1.9,0-3.2-1.3-3.2-3.4 c0-2.1,1.1-3.6,3.1-3.6c1.9,0,2.9,1.3,2.9,3.3V49h-4.8C102.8,50.3,103.4,51.3,104.7,51.3z M106.4,48.2c0-1.2-0.6-2.1-1.8-2.1 c-1.3,0-1.9,1-1.8,2.1H106.4z" class="st2"/><path d="M109.3,45.4h1.2v0.9c0.3-0.4,0.9-1.1,2.1-1.1c1.5,0,2.8,1.1,2.8,3.4c0,2.3-1.3,3.6-3,3.6 c-0.7,0-1.4-0.3-1.9-1.1v3h-1.2V45.4z M114.2,48.7c0-1.7-0.9-2.5-2-2.5c-1,0-1.8,0.9-1.8,1.6v2.5c0.4,0.6,1,1.1,1.7,1.1 C113.3,51.3,114.2,50.4,114.2,48.7z" class="st2"/><path d="M116.6,48.8c0-2.1,1.2-3.5,3.1-3.5s3.1,1.5,3.1,3.5s-1.1,3.5-3.1,3.5C117.7,52.2,116.6,50.8,116.6,48.8z M121.5,48.7c0-1.4-0.6-2.5-1.9-2.5s-1.9,1.1-1.9,2.5s0.6,2.6,1.9,2.6C121,51.3,121.5,50.2,121.5,48.7z" class="st2"/><path d="M123.8,50.1h1.1c0.2,0.8,0.9,1.2,1.7,1.2c0.9,0,1.5-0.4,1.5-1c0-0.5-0.3-0.8-0.9-0.9l-1.4-0.3 c-1.1-0.3-1.8-0.8-1.8-1.8c0-1.2,1-2,2.6-2c1.5,0,2.4,0.8,2.5,1.9H128c-0.1-0.7-0.7-1-1.4-1c-1,0-1.4,0.5-1.4,1.1 c0,0.5,0.4,0.7,1.1,0.9l1.3,0.3c1.2,0.3,1.6,1.1,1.6,1.8c0,1.3-1.2,2-2.6,2S124,51.6,123.8,50.1z" class="st2"/><path d="M132.3,44H131v-1.2h1.2V44H132.3z M132.2,52.1H131v-6.7h1.2V52.1z" class="st2"/><path d="M136.4,46.3v4.2c0,0.7,0.2,0.8,0.8,0.8h0.7V52c-0.2,0.1-0.5,0.1-1,0.1c-1.4,0-1.8-0.6-1.8-1.7v-4.2H134v-0.9 h1.1l0.3-2h0.9v1.9h1.5v0.9h-1.4V46.3z" class="st2"/><path d="M139.1,48.8c0-2.1,1.2-3.5,3.1-3.5c1.9,0,3.1,1.5,3.1,3.5s-1.1,3.5-3.1,3.5C140.2,52.2,139.1,50.8,139.1,48.8 z M144,48.7c0-1.4-0.6-2.5-1.9-2.5c-1.3,0-1.9,1.1-1.9,2.5s0.6,2.6,1.9,2.6C143.5,51.3,144,50.2,144,48.7z" class="st2"/><path d="M146.8,45.4h1.1v1.3c0.3-0.8,1.1-1.4,2.3-1.4c0.1,0,0.1,0,0.2,0v1.2c-0.1,0-0.1,0-0.2,0 c-1.4-0.1-2.2,0.5-2.2,1.5v4.2h-1.2L146.8,45.4L146.8,45.4z" class="st2"/><path d="M151.8,54.1v-0.8h0.7c1,0,1.2-0.4,1.4-0.7l0.2-0.6l-2.6-6.6h1.2l2,5.2l2-5.2h1.2l-2.8,7.2 c-0.5,1.3-1.2,1.6-2.2,1.6C152,54.2,151.8,54.1,151.8,54.1z" class="st2"/><path d="M161.5,48.8c0-2.1,1.2-3.5,3.1-3.5c1.9,0,3.1,1.5,3.1,3.5s-1.1,3.5-3.1,3.5C162.6,52.2,161.5,50.8,161.5,48.8 z M166.4,48.7c0-1.4-0.6-2.5-1.9-2.5c-1.3,0-1.9,1.1-1.9,2.5s0.6,2.6,1.9,2.6C165.9,51.3,166.4,50.2,166.4,48.7z" class="st2"/><path d="M172.8,46.3h-1.6v5.8H170v-5.8h-1.4v-0.9h1.4v-1c0-1.1,0.5-1.6,1.6-1.6h1.3v0.9h-1c-0.6,0-0.7,0.3-0.7,0.9 v0.9h1.7v0.8H172.8z" class="st2"/><path d="M183.4,42.7v1.1h-4.6v3.1h4.2v1h-4.2v4.2h-1.2v-9.4C177.6,42.7,183.4,42.7,183.4,42.7z" class="st2"/><path d="M187.5,51.3c0.9,0,1.4-0.4,1.7-1.2h1.1c-0.3,1.4-1.5,2.1-2.8,2.1c-1.9,0-3.2-1.3-3.2-3.4 c0-2.1,1.1-3.6,3.1-3.6c1.9,0,2.9,1.3,2.9,3.3V49h-4.8C185.6,50.3,186.2,51.3,187.5,51.3z M189.2,48.2c0-1.2-0.6-2.1-1.8-2.1 c-1.3,0-1.9,1-1.8,2.1H189.2z" class="st2"/><path d="M191.7,48.7c0-2,0.9-3.5,2.7-3.5c1.3,0,1.9,0.7,2.2,1.1v-4h1.2V52h-0.9l-0.1-1.4c-0.2,0.5-0.7,1.5-2.2,1.5 C192.6,52.2,191.7,50.9,191.7,48.7z M196.6,49.5v-1.6c0-0.5-0.4-1.8-1.8-1.8c-1.2,0-1.8,0.9-1.8,2.5c0,1.8,0.7,2.6,1.8,2.6 C195.8,51.3,196.5,50.5,196.6,49.5z" class="st2"/><path d="M202.6,51.3c0.9,0,1.4-0.4,1.7-1.2h1.1c-0.3,1.4-1.5,2.1-2.8,2.1c-1.9,0-3.2-1.3-3.2-3.4 c0-2.1,1.1-3.6,3.1-3.6c1.9,0,2.9,1.3,2.9,3.3V49h-4.8C200.7,50.3,201.3,51.3,202.6,51.3z M204.3,48.2c0-1.2-0.6-2.1-1.8-2.1 s-1.9,1-1.8,2.1H204.3z" class="st2"/><path d="M207.1,45.4h1.1v1.3c0.3-0.8,1.1-1.4,2.3-1.4c0.1,0,0.1,0,0.2,0v1.2c-0.1,0-0.1,0-0.2,0 c-1.4-0.1-2.2,0.5-2.2,1.5v4.2h-1.2L207.1,45.4L207.1,45.4z" class="st2"/><path d="M211.6,50.3c0-1.5,1-2.2,3.3-2.3h1.2v-0.5c0-0.9-0.6-1.3-1.5-1.3c-0.8,0-1.4,0.4-1.6,1.1h-1.1 c0.1-1.2,1.1-2,2.7-2c1.7,0,2.6,0.8,2.6,2.2v4.7h-1l-0.1-1.3c-0.5,1-1.3,1.4-2.3,1.4C212.5,52.2,211.6,51.5,211.6,50.3z M216.1,49.9v-1.1h-1c-1.5,0-2.3,0.4-2.3,1.4c0,0.7,0.6,1.2,1.4,1.2C215.1,51.4,216.1,50.6,216.1,49.9z" class="st2"/><path d="M219.4,50.4v-7.9h1.2v7.8c0,0.7,0.3,1,0.8,1h0.4v0.8c-0.2,0.1-0.4,0.1-0.6,0.1 C219.6,52.2,219.4,51.3,219.4,50.4z" class="st2"/><path d="M226.5,42.7h5.9v1.1h-4.7v3.1h4.2v1h-4.3V51h4.8v1.1h-6v-9.4H226.5z" class="st2"/><path d="M234.2,45.4h1.2v1c0.3-0.6,1-1.1,2.1-1.1c1.3,0,2.4,0.7,2.4,2.4v4.4h-1.2v-4.3c0-1-0.6-1.5-1.5-1.5 s-1.7,0.4-1.7,1.3v4.5h-1.2v-6.7H234.2z" class="st2"/><path d="M243.3,46.3v4.2c0,0.7,0.2,0.8,0.8,0.8h0.7V52c-0.2,0.1-0.5,0.1-1,0.1c-1.4,0-1.8-0.6-1.8-1.7v-4.2h-1v-0.9 h1.1l0.3-2h0.9v1.9h1.5v0.9h-1.5V46.3z" class="st2"/><path d="M249.2,51.3c0.9,0,1.4-0.4,1.7-1.2h1.1c-0.3,1.4-1.5,2.1-2.8,2.1c-1.9,0-3.2-1.3-3.2-3.4 c0-2.1,1.1-3.6,3.1-3.6c1.9,0,2.9,1.3,2.9,3.3V49h-4.8C247.3,50.3,247.9,51.3,249.2,51.3z M250.9,48.2c0-1.2-0.6-2.1-1.8-2.1 s-1.9,1-1.8,2.1H250.9z" class="st2"/><path d="M253.8,45.4h1.1v1.3c0.3-0.8,1.1-1.4,2.3-1.4c0.1,0,0.1,0,0.2,0v1.2c-0.1,0-0.1,0-0.2,0 c-1.4-0.1-2.2,0.5-2.2,1.5v4.2h-1.2L253.8,45.4L253.8,45.4z" class="st2"/><path d="M258.8,45.4h1.2v0.9c0.3-0.4,0.9-1.1,2.1-1.1c1.5,0,2.8,1.1,2.8,3.4c0,2.3-1.3,3.6-3,3.6 c-0.7,0-1.4-0.3-1.9-1.1v3h-1.2V45.4z M263.7,48.7c0-1.7-0.9-2.5-2-2.5c-1,0-1.8,0.9-1.8,1.6v2.5c0.4,0.6,1,1.1,1.7,1.1 C262.8,51.3,263.7,50.4,263.7,48.7z" class="st2"/><path d="M266.5,45.4h1.1v1.3c0.3-0.8,1.1-1.4,2.3-1.4c0.1,0,0.1,0,0.2,0v1.2c-0.1,0-0.1,0-0.2,0 c-1.4-0.1-2.2,0.5-2.2,1.5v4.2h-1.2L266.5,45.4L266.5,45.4z" class="st2"/><path d="M272.8,44h-1.2v-1.2h1.2V44z M272.8,52.1h-1.2v-6.7h1.2V52.1z" class="st2"/><path d="M274.5,50.1h1.1c0.2,0.8,0.9,1.2,1.7,1.2c0.9,0,1.5-0.4,1.5-1c0-0.5-0.3-0.8-0.9-0.9l-1.4-0.3 c-1.1-0.3-1.8-0.8-1.8-1.8c0-1.2,1-2,2.6-2c1.5,0,2.4,0.8,2.5,1.9h-1.1c-0.1-0.7-0.7-1-1.4-1c-1,0-1.4,0.5-1.4,1.1 c0,0.5,0.4,0.7,1.1,0.9l1.3,0.3c1.2,0.3,1.6,1.1,1.6,1.8c0,1.3-1.2,2-2.6,2C275.9,52.2,274.7,51.6,274.5,50.1z" class="st2"/><path d="M284.4,51.3c0.9,0,1.4-0.4,1.7-1.2h1.1c-0.3,1.4-1.5,2.1-2.8,2.1c-1.9,0-3.2-1.3-3.2-3.4 c0-2.1,1.1-3.6,3.1-3.6c1.9,0,2.9,1.3,2.9,3.3V49h-4.8C282.5,50.3,283.1,51.3,284.4,51.3z M286.1,48.2c0-1.2-0.6-2.1-1.8-2.1 c-1.3,0-1.9,1-1.8,2.1H286.1z" class="st2"/><path d="M294.3,42.7c3.5,0.1,4.9,1.7,4.9,4.6c0,3.1-1.6,4.8-5,4.8h-2.1v-9.4L294.3,42.7z M293.3,51.1h0.8 c2.3,0,3.7-1,3.7-3.7s-1.4-3.6-3.7-3.6h-0.9v7.3H293.3z" class="st2"/><path d="M300.6,50.3c0-1.5,1-2.2,3.3-2.3h1.2v-0.5c0-0.9-0.6-1.3-1.5-1.3c-0.8,0-1.4,0.4-1.6,1.1h-1.1 c0.1-1.2,1.1-2,2.7-2c1.7,0,2.6,0.8,2.6,2.2v4.7h-1l-0.1-1.3c-0.5,1-1.3,1.4-2.3,1.4C301.5,52.2,300.6,51.5,300.6,50.3z M305.1,49.9v-1.1h-1c-1.5,0-2.3,0.4-2.3,1.4c0,0.7,0.6,1.2,1.4,1.2C304,51.4,305.1,50.6,305.1,49.9z" class="st2"/><path d="M309.9,46.3v4.2c0,0.7,0.2,0.8,0.8,0.8h0.7V52c-0.2,0.1-0.5,0.1-1,0.1c-1.4,0-1.8-0.6-1.8-1.7v-4.2h-1.1v-0.9 h1.1l0.3-2h0.9v1.9h1.5v0.9h-1.4V46.3z" class="st2"/><path d="M312.8,50.3c0-1.5,1-2.2,3.3-2.3h1.2v-0.5c0-0.9-0.6-1.3-1.5-1.3c-0.8,0-1.4,0.4-1.6,1.1h-1.1 c0.1-1.2,1.1-2,2.7-2c1.7,0,2.6,0.8,2.6,2.2v4.7h-1l-0.1-1.3c-0.5,1-1.3,1.4-2.3,1.4C313.7,52.2,312.8,51.5,312.8,50.3z M317.2,49.9v-1.1h-1c-1.5,0-2.3,0.4-2.3,1.4c0,0.7,0.6,1.2,1.4,1.2C316.2,51.4,317.2,50.6,317.2,49.9z" class="st2"/><path d="M329.2,52.1l-1.7-4H325v4h-1.2v-9.4h3.6c2,0,3.1,1,3.1,2.6c0,1.5-0.9,2.2-1.8,2.6l1.8,4.3L329.2,52.1 L329.2,52.1z M329.2,45.3c0-1.1-0.7-1.7-1.9-1.7H325V47h2.1C328.4,47.1,329.2,46.5,329.2,45.3z" class="st2"/><path d="M335,51.3c0.9,0,1.4-0.4,1.7-1.2h1.1c-0.3,1.4-1.5,2.1-2.8,2.1c-1.9,0-3.2-1.3-3.2-3.4c0-2.1,1.1-3.6,3.1-3.6 c1.9,0,2.9,1.3,2.9,3.3V49H333C333.1,50.3,333.8,51.3,335,51.3z M336.8,48.2c0-1.2-0.6-2.1-1.8-2.1c-1.2,0-1.9,1-1.8,2.1H336.8z" class="st2"/><path d="M339.1,50.1h1.1c0.2,0.8,0.9,1.2,1.7,1.2c0.9,0,1.5-0.4,1.5-1c0-0.5-0.3-0.8-0.9-0.9l-1.4-0.3 c-1.1-0.3-1.8-0.8-1.8-1.8c0-1.2,1-2,2.6-2c1.5,0,2.4,0.8,2.5,1.9h-1.1c-0.1-0.7-0.7-1-1.4-1c-1,0-1.4,0.5-1.4,1.1 c0,0.5,0.4,0.7,1.1,0.9l1.3,0.3c1.2,0.3,1.6,1.1,1.6,1.8c0,1.3-1.2,2-2.6,2C340.5,52.2,339.3,51.6,339.1,50.1z" class="st2"/><path d="M345.8,48.8c0-2.1,1.2-3.5,3.1-3.5s3.1,1.5,3.1,3.5s-1.1,3.5-3.1,3.5C346.9,52.2,345.8,50.8,345.8,48.8z M350.8,48.7c0-1.4-0.6-2.5-1.9-2.5s-1.9,1.1-1.9,2.5s0.6,2.6,1.9,2.6C350.2,51.3,350.8,50.2,350.8,48.7z" class="st2"/><path d="M353.3,49.9v-4.6h1.2v4.5c0,1.1,0.9,1.5,1.6,1.5c0.9,0,1.6-0.5,1.6-1.5v-4.4h1.2v6.7h-1l-0.1-1.3 c-0.2,1-1.1,1.4-2,1.4C354.8,52.2,353.3,51.6,353.3,49.9z" class="st2"/><path d="M361,45.4h1.1v1.3c0.3-0.8,1.1-1.4,2.3-1.4c0.1,0,0.1,0,0.2,0v1.2c-0.1,0-0.1,0-0.2,0 c-1.4-0.1-2.2,0.5-2.2,1.5v4.2H361V45.4z" class="st2"/><path d="M371.3,47.5h-1.1c-0.2-0.8-0.8-1.3-1.6-1.3c-1.2,0-2,1-2,2.5c0,1.6,0.8,2.6,2,2.6c0.8,0,1.4-0.5,1.6-1.3h1 c-0.2,1.4-1.3,2.2-2.7,2.2c-1.9,0-3.1-1.4-3.1-3.5s1.2-3.5,3.1-3.5C370,45.3,371.1,46.1,371.3,47.5z" class="st2"/><path d="M375.7,51.3c0.9,0,1.4-0.4,1.7-1.2h1.1c-0.3,1.4-1.5,2.1-2.8,2.1c-1.9,0-3.2-1.3-3.2-3.4 c0-2.1,1.1-3.6,3.1-3.6c1.9,0,2.9,1.3,2.9,3.3V49h-4.8C373.8,50.3,374.4,51.3,375.7,51.3z M377.4,48.2c0-1.2-0.6-2.1-1.8-2.1 c-1.3,0-1.9,1-1.8,2.1H377.4z" class="st2"/><path d="M379.8,50.1h1.1c0.2,0.8,0.9,1.2,1.7,1.2c0.9,0,1.5-0.4,1.5-1c0-0.5-0.3-0.8-0.9-0.9l-1.4-0.3 c-1.1-0.3-1.8-0.8-1.8-1.8c0-1.2,1-2,2.6-2c1.5,0,2.4,0.8,2.5,1.9H384c-0.1-0.7-0.7-1-1.4-1c-1,0-1.4,0.5-1.4,1.1 c0,0.5,0.4,0.7,1.1,0.9l1.3,0.3c1.2,0.3,1.6,1.1,1.6,1.8c0,1.3-1.2,2-2.6,2C381.2,52.2,380,51.6,379.8,50.1z" class="st2"/></g><line id="Line-3" x1="66.3" x2="66.3" y1="2.6" y2="51.6" class="st3"/><g id="Group"><g id="triangle-connect-copy" transform="translate(1.000000, 1.000000)"><line id="Line" x1="24.9" x2="19.4" y1="50.9" y2="45.4" class="st4"/><line id="Line_1_" x1="19.4" x2="12.5" y1="45.4" y2="47.3" class="st4"/><line id="Line_2_" x1="12.5" x2="10.7" y1="47.3" y2="40.3" class="st4"/><line id="Line_3_" x1="11" x2="4.2" y1="40.3" y2="39.1" class="st4"/><line id="Line_4_" x1="4.2" x2="5.8" y1="38.9" y2="31.4" class="st4"/><line id="Line_5_" x1="5.8" x2="1" y1="31.2" y2="26.8" class="st4"/><line id="line-adjust-2" x1="1" x2="6" y1="26.7" y2="21.2" class="st4"/><line id="line-adjust-1" x1="6" x2="4.4" y1="20.9" y2="14.2" class="st4"/><line id="Line_6_" x1="4.2" x2="11" y1="14.5" y2="13.4" class="st4"/><line id="Line_7_" x1="10.8" x2="12.5" y1="13.4" y2="5.9" class="st4"/><line id="Line_8_" x1="19.4" x2="12.5" y1="8" y2="5.9" class="st4"/><line id="Line_9_" x1="24.8" x2="19.6" y1="2.5" y2="8" class="st4"/><line id="Line_10_" x1="24.9" x2="30" y1="2.3" y2="7.9" class="st4"/><line id="Line_11_" x1="30" x2="37.2" y1="7.9" y2="5.9" class="st4"/><line id="Line_12_" x1="37.2" x2="38.6" y1="5.9" y2="13.2" class="st4"/><line id="Line_13_" x1="38.4" x2="45.3" y1="13.2" y2="14.6" class="st4"/><line id="Line_14_" x1="45.3" x2="43.2" y1="14.5" y2="21.1" class="st4"/><line id="Line_15_" x1="43.2" x2="48.7" y1="21.1" y2="26.8" class="st4"/><line id="Line_16_" x1="48.7" x2="43.2" y1="26.8" y2="31.5" class="st4"/><line id="Line_17_" x1="43.2" x2="45.3" y1="31.5" y2="38.9" class="st4"/><line id="Line_18_" x1="45.3" x2="38.4" y1="38.7" y2="40.1" class="st4"/><line id="Line_19_" x1="38.6" x2="37.2" y1="40.1" y2="47.2" class="st4"/><line id="Line_20_" x1="37.2" x2="30" y1="47.3" y2="45.5" class="st4"/><line id="Line_21_" x1="30" x2="24.9" y1="45.5" y2="50.7" class="st4"/></g><polygon id="Polygon-1-Copy-2" points="25.8 3.1 37.8 6.3 46.5 15.1 49.8 27.1 46.5 39.1 37.8 47.9 25.8 51.1 13.8 47.9 5 39.1 1.8 27.1 5 15.1 13.8 6.3" class="st5"/><polygon id="Polygon-1-Copy" points="30.8 8.7 39.4 13.7 44.4 22.3 44.4 32.3 39.4 41 30.7 45.9 20.7 46 12.1 41 7.1 32.3 7.1 22.4 12.1 13.7 20.8 8.7" class="st5"/><g id="Nodes-Copy"><ellipse id="Oval-2" cx="25.8" cy="3.2" class="st6" rx="1.2" ry="1.1"/><ellipse id="Oval-2_1_" cx="7.1" cy="32.1" class="st6" rx="1.2" ry="1.1"/><ellipse id="Oval-adjust-1" cx="6.8" cy="21.7" class="st6" rx="1.2" ry="1.1"/><ellipse id="Oval-2_2_" cx="44.1" cy="32.1" class="st6" rx="1.2" ry="1.1"/><ellipse id="Oval-2_3_" cx="44.1" cy="21.7" class="st6" rx="1.2" ry="1.1"/><ellipse id="Oval-2_4_" cx="13.7" cy="6.6" class="st6" rx="1.2" ry="1.1"/><ellipse id="Oval-2_5_" cx="38" cy="6.6" class="st6" rx="1.2" ry="1.1"/><ellipse id="Oval-2_6_" cx="20.5" cy="8.6" class="st6" rx="1.2" ry="1.1"/><ellipse id="Oval-2_7_" cx="30.9" cy="8.6" class="st6" rx="1.2" ry="1.1"/><ellipse id="Oval-2_8_" cx="39.5" cy="13.9" class="st6" rx="1.2" ry="1.1"/><ellipse id="Oval-2_9_" cx="11.9" cy="13.9" class="st6" rx="1.2" ry="1.1"/><ellipse id="Oval-2_10_" cx="30.9" cy="45.8" class="st6" rx="1.2" ry="1.1"/><ellipse id="Oval-2_11_" cx="20.5" cy="45.8" class="st6" rx="1.2" ry="1.1"/><ellipse id="Oval-2_12_" cx="11.9" cy="40.4" class="st6" rx="1.2" ry="1.1"/><ellipse id="Oval-2_13_" cx="39.5" cy="40.4" class="st6" rx="1.2" ry="1.1"/><ellipse id="Oval-2_14_" cx="1.9" cy="27.2" class="st6" rx="1.2" ry="1.1"/><ellipse id="Oval-2_15_" cx="5.3" cy="39.2" class="st6" rx="1.2" ry="1.1"/><ellipse id="Oval-2_16_" cx="5.3" cy="15.1" class="st6" rx="1.2" ry="1.1"/><ellipse id="Oval-2_17_" cx="49.6" cy="27.2" class="st6" rx="1.2" ry="1.1"/><ellipse id="Oval-2_18_" cx="46.2" cy="15.1" class="st6" rx="1.2" ry="1.1"/><ellipse id="Oval-2_19_" cx="46.2" cy="39.2" class="st6" rx="1.2" ry="1.1"/><ellipse id="Oval-2_20_" cx="25.8" cy="51" class="st6" rx="1.2" ry="1.1"/><ellipse id="Oval-2_21_" cx="38" cy="47.6" class="st6" rx="1.2" ry="1.1"/><ellipse id="Oval-2_22_" cx="13.7" cy="47.6" class="st6" rx="1.2" ry="1.1"/></g></g></g></svg>